<?xml version="1.0" standalone="no"?>
<!DOCTYPE svg PUBLIC "-//W3C//DTD SVG 20010904//EN"
 "http://www.w3.org/TR/2001/REC-SVG-20010904/DTD/svg10.dtd">
<svg version="1.0" xmlns="http://www.w3.org/2000/svg"
 width="650.000000pt" height="650.000000pt" viewBox="0 0 650.000000 650.000000"
 preserveAspectRatio="xMidYMid meet">
<metadata>
Created by potrace 1.14, written by Peter Selinger 2001-2017
</metadata>
<g transform="translate(0.000000,650.000000) scale(0.100000,-0.100000)"
fill="#000000" stroke="none">
<path d="M2859 5935 c-2 -2 -37 -6 -78 -9 -41 -4 -84 -9 -95 -11 -12 -2 -37
-7 -56 -10 -19 -2 -44 -6 -55 -9 -11 -2 -39 -7 -62 -11 -24 -4 -98 -22 -165
-41 -68 -19 -130 -37 -138 -39 -34 -9 -242 -96 -311 -130 -41 -20 -114 -60
-162 -89 -48 -28 -96 -55 -105 -61 -23 -13 -155 -107 -162 -115 -3 -3 -25 -21
-50 -40 -24 -19 -52 -42 -60 -50 -9 -8 -41 -38 -71 -65 -49 -45 -105 -105
-194 -206 -17 -19 -51 -61 -75 -94 -25 -33 -47 -62 -51 -65 -12 -11 -139 -220
-176 -290 -114 -218 -215 -523 -247 -745 -4 -23 -8 -50 -10 -60 -27 -143 -29
-627 -2 -770 2 -11 7 -42 10 -68 4 -27 9 -59 12 -70 2 -12 7 -35 9 -52 15 -82
89 -329 120 -400 7 -16 25 -59 40 -95 78 -188 259 -472 404 -635 40 -44 170
-174 247 -247 27 -25 87 -87 134 -137 317 -340 763 -590 1265 -708 169 -39
355 -58 585 -58 243 0 342 10 545 51 476 96 927 337 1265 674 83 83 169 180
199 223 8 12 18 24 21 27 4 3 31 41 61 85 163 236 272 463 351 730 36 125 62
243 73 335 3 29 8 56 10 60 7 12 18 217 18 355 1 135 -9 318 -18 366 -3 13
-10 53 -15 89 -18 115 -21 130 -56 259 -79 289 -212 568 -381 800 -106 145
-183 234 -304 347 -46 44 -108 106 -139 138 -203 217 -424 397 -610 497 -25
13 -47 26 -50 29 -5 5 -59 32 -190 95 -178 86 -509 180 -708 201 -30 3 -65 8
-76 11 -24 6 -492 14 -497 8z m658 -1740 c26 -4 57 -8 68 -10 52 -7 156 -40
217 -68 67 -31 67 -31 107 -117 39 -84 67 -158 75 -202 2 -13 9 -41 15 -63 18
-69 22 -115 26 -300 4 -194 -6 -299 -45 -445 -52 -195 -166 -381 -305 -499
-40 -33 -172 -111 -190 -111 -7 0 -17 -5 -20 -10 -4 -6 -10 -8 -15 -5 -5 3
-11 1 -14 -4 -4 -5 -39 -17 -79 -26 -39 -9 -81 -19 -92 -22 -11 -2 -85 -6
-165 -8 -200 -5 -343 20 -486 85 -58 26 -62 30 -96 101 -59 123 -96 253 -115
404 -9 78 -9 332 0 414 44 368 225 661 493 794 56 29 146 61 199 73 53 11 79
15 135 21 36 3 66 6 67 8 6 4 173 -3 220 -10z"/>
</g>
</svg>
